HIERARCHY
ROOT root
{
	OFFSET	0	13.1	24.9
	CHANNELS 6  Xposition Yposition Zposition Xrotation Yrotation Zrotation
	JOINT spine_1
	{
		OFFSET	0	9.99999	0
		CHANNELS 3  Xrotation Yrotation Zrotation
		JOINT spine_2
		{
			OFFSET	0	112	-10
			CHANNELS 3  Xrotation Yrotation Zrotation
			JOINT spine_3
			{
				OFFSET	0	206.5	19.3
				CHANNELS 3  Xrotation Yrotation Zrotation
				JOINT spine_4
				{
					OFFSET	0	110.4	14.6
					CHANNELS 3  Xrotation Yrotation Zrotation
					JOINT neck_1
					{
						OFFSET	0	71.8	-50.3
						CHANNELS 3  Xrotation Yrotation Zrotation
						JOINT neck_2
						{
							OFFSET	0	86.2	-25.8
							CHANNELS 3  Xrotation Yrotation Zrotation
							JOINT head_ee
							{
								OFFSET	0	179.8	-8.7
								CHANNELS 3  Xrotation Yrotation Zrotation
								End Site
								{
									OFFSET	1	0	0
								}
							}
						}
					}
					JOINT left_clavicle
					{
						OFFSET	-43.2	22.4	-70.8
						CHANNELS 3  Xrotation Yrotation Zrotation
						JOINT left_shoulder
						{
							OFFSET	-93.9	-5.79999	48.7
							CHANNELS 3  Xrotation Yrotation Zrotation
							JOINT left_elbow
							{
								OFFSET	-291.4	-30.8	15.2
								CHANNELS 3  Xrotation Yrotation Zrotation
								JOINT left_lowarm_twist
								{
									OFFSET	-110.7	-3.89999	13.6
									CHANNELS 3  Xrotation Yrotation Zrotation
									JOINT left_hand
									{
										OFFSET	-110.7	-3.89999	13.6
										CHANNELS 3  Xrotation Yrotation Zrotation
										JOINT left_ee
										{
											OFFSET	-80.8	-5.10001	12.1
											CHANNELS 3  Xrotation Yrotation Zrotation
											End Site
											{
												OFFSET	1	0	0
											}
										}
									}
								}
							}
						}
					}
					JOINT right_clavicle
					{
						OFFSET	43.2	22.4	-70.8
						CHANNELS 3  Xrotation Yrotation Zrotation
						JOINT right_shoulder
						{
							OFFSET	93.9	-5.79999	48.7
							CHANNELS 3  Xrotation Yrotation Zrotation
							JOINT right_elbow
							{
								OFFSET	291.4	-30.8	15.2
								CHANNELS 3  Xrotation Yrotation Zrotation
								JOINT right_lowarm_twist
								{
									OFFSET	110.7	-3.89999	13.6
									CHANNELS 3  Xrotation Yrotation Zrotation
									JOINT right_hand
									{
										OFFSET	110.7	-3.89999	13.6
										CHANNELS 3  Xrotation Yrotation Zrotation
										JOINT right_ee
										{
											OFFSET	80.8	-5.10001	12.1
											CHANNELS 3  Xrotation Yrotation Zrotation
											End Site
											{
												OFFSET	1	0	0
											}
										}
									}
								}
							}
						}
					}
				}
			}
		}
	}
	JOINT left_hip
	{
		OFFSET	-82.8	-127.5	0.300001
		CHANNELS 3  Xrotation Yrotation Zrotation
		JOINT left_knee
		{
			OFFSET	-28.2	-396.7	2.2
			CHANNELS 3  Xrotation Yrotation Zrotation
			JOINT left_ankle
			{
				OFFSET	-11.7	-411.3	35.4
				CHANNELS 3  Xrotation Yrotation Zrotation
				JOINT left_toes
				{
					OFFSET	0	-60	-88.6
					CHANNELS 3  Xrotation Yrotation Zrotation
					JOINT left_foot_ee
					{
						OFFSET	-22.5	-16.5	-42.2
						CHANNELS 3  Xrotation Yrotation Zrotation
						End Site
						{
							OFFSET	1	0	0
						}
					}
				}
			}
		}
	}
	JOINT right_hip
	{
		OFFSET	82.8	-127.5	0.300001
		CHANNELS 3  Xrotation Yrotation Zrotation
		JOINT right_knee
		{
			OFFSET	28.2	-396.7	2.2
			CHANNELS 3  Xrotation Yrotation Zrotation
			JOINT right_ankle
			{
				OFFSET	11.7	-411.3	35.4
				CHANNELS 3  Xrotation Yrotation Zrotation
				JOINT right_toes
				{
					OFFSET	0	-60	-88.6
					CHANNELS 3  Xrotation Yrotation Zrotation
					JOINT right_foot_ee
					{
						OFFSET	22.5	-16.5	-42.2
						CHANNELS 3  Xrotation Yrotation Zrotation
						End Site
						{
							OFFSET	1	0	0
						}
					}
				}
			}
		}
	}
}
MOTION
Frames: 13
Frame Time: 0.02
1041.4 574.639 -1682.42 -173.143649824 70.7206230778 -175.331690671 0.270031 -0.79879 -4.43045 0.2808 -0.515539 -4.47219 0.326165 0.410711 -4.48301 0.298257 -0.301715 -4.49164 -5.76251 -7.08677 0.0563695 -5.73842 -13.1271 -1.24889 -0.0 0.0 -0.0 4.33734 -26.5549 6.36503 -14.0474 -34.6478 86.1267 0.343655 -9.66141 0.029043 -16.5414 -0.866811 1.92197 2.34717 29.4471 24.8938 -0.0 0.0 -0.0 -2.83475 -4.507 4.71197 16.4456 8.63742 -55.0531 3.27474 58.3353 -1.82811 35.7716 0.147791 4.49384 -2.94701 -8.45379 15.7354 0.0 0.0 0.0 41.9844 -14.5794 3.15128 -21.7617 0.270546 3.30851 13.1072 23.2315 -1.91208 31.477 -0.0 -0.0 -0.0 0.0 -0.0 -23.0901 -22.4785 -25.1335 3.63031 0.16643 0.532064 38.4564 18.2208 5.14011 -25.3256 0.0 0.0 0.0 0.0 0.0 
1018.47156404 574.9 -1676.52041955 -174.852879845 70.3955131985 -173.808748206 0.201191 -0.776937 -4.31467 0.211406 -0.501076 -4.35526 0.254556 0.406391 -4.3651 0.22809 -0.287415 -4.37452 -5.2155 -7.38951 -0.0491523 -5.17967 -13.5686 -1.35177 -0.0 0.0 -0.0 4.83822 -26.2707 7.48301 -14.5286 -34.6479 85.2054 0.361579 -10.1551 0.0321274 -16.5266 -0.865795 1.92038 2.36544 28.3507 24.7866 -0.0 0.0 -0.0 -2.94591 -4.32365 4.9522 16.7993 9.0523 -55.6714 2.81974 54.3904 -1.44907 36.6414 0.186193 4.5982 -3.04232 -12.2395 14.3377 0.0 0.0 0.0 40.4369 -14.3047 2.9608 -23.0637 0.246689 3.50687 11.9783 23.0812 -1.75287 31.2642 -0.0 -0.0 -0.0 0.0 -0.0 -22.603 -22.0424 -23.5483 -0.340011 -0.0138513 -0.0503397 38.4811 18.1341 5.13909 -24.9264 0.0 0.0 0.0 0.0 0.0 
1018.56710914 574.9 -1676.16082116 -175.069551107 69.4985346289 -173.578100847 0.201191 -0.776937 -4.31467 0.211406 -0.501076 -4.35526 0.254556 0.406391 -4.3651 0.22809 -0.287415 -4.37452 -5.2155 -7.38951 -0.0491523 -5.17967 -13.5686 -1.35177 -0.0 0.0 -0.0 4.83822 -26.2707 7.48301 -14.5286 -34.6479 85.2054 0.361579 -10.1551 0.0321274 -16.5266 -0.865795 1.92038 2.36544 28.3507 24.7866 -0.0 0.0 -0.0 -2.94591 -4.32365 4.9522 16.7993 9.0523 -55.6714 2.81974 54.3904 -1.44907 36.6414 0.186193 4.5982 -3.04232 -12.2395 14.3377 0.0 0.0 0.0 40.4369 -14.3047 2.9608 -23.0637 0.246689 3.50687 11.9783 23.0812 -1.75287 31.2642 -0.0 -0.0 -0.0 0.0 -0.0 -22.603 -22.0424 -23.5483 -0.340011 -0.0138513 -0.0503397 38.4811 18.1341 5.13909 -24.9264 0.0 0.0 0.0 0.0 0.0 
998.585903498 577.234 -1672.82091647 -174.488841619 70.4835137864 -174.382959424 0.289504 -0.724671 -4.10849 0.298774 -0.461999 -4.14619 0.336544 0.395643 -4.15303 0.31258 -0.26463 -4.16342 -6.63803 -7.23527 0.747513 -6.62473 -13.9619 -0.67928 -0.0 0.0 -0.0 5.0119 -26.1804 7.87005 -14.8666 -34.7186 84.1914 0.409061 -11.4553 0.0410294 -16.3043 -0.850534 1.89635 2.30314 25.6402 23.8136 -0.0 0.0 -0.0 -2.99165 -4.73232 4.96402 16.5925 9.20579 -57.1637 2.63904 52.5774 -1.30382 36.7713 0.192068 4.61374 -3.08645 -13.7526 13.798 0.0 0.0 0.0 39.2067 -14.295 2.32347 -24.3635 0.218379 3.70432 10.2538 23.7297 -1.51373 30.8731 -0.0 -0.0 -0.0 0.0 -0.0 -21.2722 -21.9593 -21.9705 -3.54898 -0.129767 -0.529112 38.7106 17.7954 5.14747 -24.6267 0.0 0.0 0.0 0.0 0.0 
982.451831447 584.363 -1669.46942935 -174.737735637 70.9034704237 -174.792961474 0.404926 -0.737461 -4.06589 0.413994 -0.477467 -4.10449 0.452188 0.363597 -4.11612 0.428669 -0.290462 -4.12191 -6.41883 -7.15335 1.57122 -6.39117 -14.3976 0.191391 -0.0 0.0 -0.0 5.16631 -26.1378 8.21039 -13.5299 -34.6889 84.0075 0.400988 -11.2351 0.0394411 -16.5708 -0.868839 1.92515 2.28901 26.5194 23.9248 -0.0 0.0 -0.0 -3.0745 -5.96613 4.89206 16.2834 9.24806 -58.5671 2.56549 51.7936 -1.24572 36.9209 0.198871 4.63161 -2.89482 -14.8466 11.9745 0.0 0.0 0.0 38.258 -13.816 2.38353 -23.823 0.230695 3.6223 5.37217 25.4486 -0.811643 30.1871 -0.0 -0.0 -0.0 0.0 -0.0 -20.2741 -20.1226 -19.8488 -4.53548 -0.159988 -0.677492 37.5168 19.4869 5.1014 -24.5925 0.0 0.0 0.0 0.0 0.0 
947.3435401 585.998 -1663.94273635 -174.821682509 72.4415545543 -174.665499327 0.445564 -0.739163 -3.85641 0.453701 -0.492463 -3.89555 0.490747 0.303852 -3.91475 0.469507 -0.317736 -3.91365 -6.8353 -7.32414 1.33811 -6.81994 -14.5642 -0.128699 -0.0 0.0 -0.0 5.30086 -25.9325 8.52432 -12.7211 -34.5989 82.2984 0.469145 -13.0835 0.0537991 -16.7786 -0.883197 1.94753 2.34764 25.4802 24.0559 -0.0 0.0 -0.0 -3.31785 -6.42424 5.25229 14.3284 9.44765 -59.8897 2.40292 49.959 -1.11958 36.9315 0.199356 4.63288 -3.04829 -16.9034 11.82 0.0 0.0 0.0 36.5886 -13.5563 2.28684 -26.0498 0.174988 3.95945 4.8036 24.8305 -0.724448 29.6792 -0.0 -0.0 -0.0 0.0 -0.0 -19.5774 -20.8997 -19.0909 -8.77678 -0.260651 -1.32043 37.5248 17.2709 5.01724 -24.864 0.0 0.0 0.0 0.0 0.0 
947.661517894 585.998 -1662.39192237 -175.077613309 71.4989481265 -174.39636147 0.445564 -0.739163 -3.85641 0.453701 -0.492463 -3.89555 0.490747 0.303852 -3.91475 0.469507 -0.317736 -3.91365 -6.8353 -7.32414 1.33811 -6.81994 -14.5642 -0.128699 -0.0 0.0 -0.0 5.30086 -25.9325 8.52432 -12.7211 -34.5989 82.2984 0.469145 -13.0835 0.0537991 -16.7786 -0.883197 1.94753 2.34764 25.4802 24.0559 -0.0 0.0 -0.0 -3.31785 -6.42424 5.25229 14.3284 9.44765 -59.8897 2.40292 49.959 -1.11958 36.9315 0.199356 4.63288 -3.04829 -16.9034 11.82 0.0 0.0 0.0 36.5886 -13.5563 2.28684 -26.0498 0.174988 3.95945 4.8036 24.8305 -0.724448 29.6792 -0.0 -0.0 -0.0 0.0 -0.0 -19.5774 -20.8997 -19.0909 -8.77678 -0.260651 -1.32043 37.5248 17.2709 5.01724 -24.864 0.0 0.0 0.0 0.0 0.0 
948.105199533 585.998 -1660.41756544 -175.368460641 70.2935414303 -174.088579997 0.445564 -0.739163 -3.85641 0.453701 -0.492463 -3.89555 0.490747 0.303852 -3.91475 0.469507 -0.317736 -3.91365 -6.8353 -7.32414 1.33811 -6.81994 -14.5642 -0.128699 -0.0 0.0 -0.0 5.30086 -25.9325 8.52432 -12.7211 -34.5989 82.2984 0.469145 -13.0835 0.0537991 -16.7786 -0.883197 1.94753 2.34764 25.4802 24.0559 -0.0 0.0 -0.0 -3.31785 -6.42424 5.25229 14.3284 9.44765 -59.8897 2.40292 49.959 -1.11958 36.9315 0.199356 4.63288 -3.04829 -16.9034 11.82 0.0 0.0 0.0 36.5886 -13.5563 2.28684 -26.0498 0.174988 3.95945 4.8036 24.8305 -0.724448 29.6792 -0.0 -0.0 -0.0 0.0 -0.0 -19.5774 -20.8997 -19.0909 -8.77678 -0.260651 -1.32043 37.5248 17.2709 5.01724 -24.864 0.0 0.0 0.0 0.0 0.0 
912.105742259 590.302 -1656.29649259 -173.206803899 70.7091424533 -176.135503034 1.12946 -0.754663 -3.81317 1.13741 -0.510677 -3.85338 1.17371 0.231142 -3.88015 1.15291 -0.384087 -3.86802 -8.89223 -6.6129 2.38373 -8.90912 -14.0408 0.807561 -0.0 0.0 -0.0 5.38213 -25.1137 8.78436 -10.8161 -35.1844 80.4261 0.454823 -12.6973 0.050604 -17.8009 -0.95504 2.05695 1.88991 26.0266 21.3564 -0.0 0.0 -0.0 -4.81486 -7.49474 7.76745 11.1572 10.0979 -63.7124 2.32495 49.0261 -1.06029 37.5396 0.227512 4.70535 -3.06206 -19.1422 10.6646 0.0 0.0 0.0 34.2345 -13.5276 2.11753 -24.6363 0.211871 3.74567 6.50194 19.4786 -0.953533 29.7979 -0.0 -0.0 -0.0 0.0 -0.0 -16.457 -20.3849 -16.9121 -17.3394 -0.317823 -2.63177 35.653 16.0426 4.79361 -22.8914 0.0 0.0 0.0 0.0 0.0 
858.096216081 604.963 -1657.10894293 -170.931995316 69.7943245998 -178.110847656 1.79389 -0.647329 -4.01842 1.80279 -0.39053 -4.05139 1.83073 0.340537 -4.05589 1.8079 -0.303746 -4.05881 -10.2975 -4.87723 4.24224 -10.2905 -12.0348 2.89153 -0.0 0.0 -0.0 5.64845 -22.0017 9.66247 -7.22265 -36.0012 77.6937 0.541002 -15.0027 0.0712379 -20.7356 -1.17202 2.36377 0.414917 27.5197 13.1564 -0.0 0.0 -0.0 -6.26822 -12.1684 9.19465 5.79587 11.099 -67.4701 2.22702 47.8027 -0.987041 37.9872 0.248731 4.75851 -2.04651 -16.5311 5.80702 0.0 0.0 0.0 27.1947 -13.8259 0.192088 -16.146 0.32162 2.44871 8.46212 11.9283 -1.21193 28.9558 -0.0 -0.0 -0.0 0.0 -0.0 -10.0824 -22.0811 -14.5711 -26.1419 -0.172401 -3.97336 32.5079 16.1566 4.47427 -23.5846 0.0 0.0 0.0 0.0 0.0 
858.846802948 604.963 -1652.16678439 -171.547114685 68.2644985861 -177.452154975 1.79389 -0.647329 -4.01842 1.80279 -0.39053 -4.05139 1.83073 0.340537 -4.05589 1.8079 -0.303746 -4.05881 -10.2975 -4.87723 4.24224 -10.2905 -12.0348 2.89153 -0.0 0.0 -0.0 5.64845 -22.0017 9.66247 -7.22265 -36.0012 77.6937 0.541002 -15.0027 0.0712379 -20.7356 -1.17202 2.36377 0.414917 27.5197 13.1564 -0.0 0.0 -0.0 -6.26822 -12.1684 9.19465 5.79587 11.099 -67.4701 2.22702 47.8027 -0.987041 37.9872 0.248731 4.75851 -2.04651 -16.5311 5.80702 0.0 0.0 0.0 27.1947 -13.8259 0.192088 -16.146 0.32162 2.44871 8.46212 11.9283 -1.21193 28.9558 -0.0 -0.0 -0.0 0.0 -0.0 -10.0824 -22.0811 -14.5711 -26.1419 -0.172401 -3.97336 32.5079 16.1566 4.47427 -23.5846 0.0 0.0 0.0 0.0 0.0 
859.866350759 604.963 -1646.55273077 -172.148741681 66.5155152503 -176.800516117 1.79389 -0.647329 -4.01842 1.80279 -0.39053 -4.05139 1.83073 0.340537 -4.05589 1.8079 -0.303746 -4.05881 -10.2975 -4.87723 4.24224 -10.2905 -12.0348 2.89153 -0.0 0.0 -0.0 5.64845 -22.0017 9.66247 -7.22265 -36.0012 77.6937 0.541002 -15.0027 0.0712379 -20.7356 -1.17202 2.36377 0.414917 27.5197 13.1564 -0.0 0.0 -0.0 -6.26822 -12.1684 9.19465 5.79587 11.099 -67.4701 2.22702 47.8027 -0.987041 37.9872 0.248731 4.75851 -2.04651 -16.5311 5.80702 0.0 0.0 0.0 27.1947 -13.8259 0.192088 -16.146 0.32162 2.44871 8.46212 11.9283 -1.21193 28.9558 -0.0 -0.0 -0.0 0.0 -0.0 -10.0824 -22.0811 -14.5711 -26.1419 -0.172401 -3.97336 32.5079 16.1566 4.47427 -23.5846 0.0 0.0 0.0 0.0 0.0 
845.998681933 602.538 -1638.38066874 -171.469163288 65.6928504193 -177.395012142 1.94218 -0.652708 -4.06632 1.95129 -0.392858 -4.09953 1.97935 0.336206 -4.10456 1.95599 -0.31569 -4.10618 -10.9928 -4.46491 4.74182 -10.9801 -11.5629 3.41074 -0.0 0.0 -0.0 5.74556 -21.2309 9.94291 -6.22655 -36.1898 76.9843 0.566697 -15.6809 0.0780362 -21.7551 -1.25105 2.46774 -0.0973966 27.9881 10.4508 -0.0 0.0 -0.0 -6.57876 -13.5198 9.35117 4.82487 11.0696 -68.3338 2.22504 47.7774 -0.985577 38.123 0.255252 4.77461 -1.80483 -15.9978 4.57698 0.0 0.0 0.0 25.1747 -13.9466 -0.108233 -13.3433 0.315543 2.01878 10.1527 10.0233 -1.44336 28.8027 -0.0 -0.0 -0.0 0.0 -0.0 -8.55345 -23.169 -14.1056 -27.5733 -0.129336 -4.18881 31.7098 16.5606 4.40121 -24.0692 0.0 0.0 0.0 0.0 0.0 
